<svg version="1.1" id="Layer_1" xmlns="http://www.w3.org/2000/svg" x="0px" y="0px"
	 width="100%" viewBox="0 0 356 355" enable-background="new 0 0 356 355" xml:space="preserve">
<path fill="none" opacity="1.000000" stroke="#000000" stroke-linecap="round" stroke-linejoin="round" stroke-width="3.000000"
	d="
M288.000000,176.500000
	C290.878204,170.666672 288.834747,164.577728 287.759155,159.046829
	C284.211792,140.805573 276.977783,123.941650 264.962677,109.531120
	C249.448669,90.924171 230.313568,77.902016 206.529434,71.883659
	C198.085541,69.747009 189.487732,68.292229 180.998459,68.237114
	C161.878433,68.112991 143.417618,72.146347 126.520737,81.537315
	C103.926903,94.094528 87.289978,112.300407 77.119026,136.050964
	C73.465141,144.583282 70.811958,153.565414 69.886925,162.988907
	C69.471481,167.221146 68.030411,171.333328 70.000000,175.500000
"/>
<path fill="none" opacity="1.000000" stroke="#000000" stroke-linecap="round" stroke-linejoin="round" stroke-width="3.000000"
	d="
M339.000000,175.500000
	C337.739105,171.974701 334.652374,171.438004 331.535461,170.394135
	C325.293640,168.303757 319.255249,165.605957 312.990326,163.101959
	C309.201355,166.428192 307.322876,170.995178 303.661896,174.185776
	C301.667358,175.924072 303.165955,179.671295 303.044983,182.501923
	C301.851929,210.419479 292.648987,235.244278 275.030701,257.024841
	C257.069794,279.228912 233.757690,292.791779 206.461853,299.852539
	C202.565079,300.860504 198.377045,300.495178 195.500000,304.000000
"/>
<path fill="none" opacity="1.000000" stroke="#000000" stroke-linecap="round" stroke-linejoin="round" stroke-width="3.000000"
	d="
M160.500000,55.000000
	C156.787735,58.351822 151.790268,57.638966 147.452286,58.825600
	C128.236771,64.081924 111.388229,73.228607 96.435204,86.426582
	C76.899765,103.669128 64.915993,125.246353 58.016205,150.004517
	C57.886902,150.468475 58.073360,151.012741 57.989071,151.498108
	C56.578228,159.622208 56.573841,159.621445 48.277855,161.551682
	C49.617065,148.567673 53.283222,136.296280 58.546421,124.520744
	C63.413059,113.632462 69.617012,103.493607 77.564789,94.557625
	C79.695915,92.161522 79.238152,90.091843 78.558510,87.484749
	C77.411331,83.084106 74.318085,79.299561 74.500000,74.500000
"/>
<path fill="none" opacity="1.000000" stroke="#000000" stroke-linecap="round" stroke-linejoin="round" stroke-width="3.000000"
	d="
M164.000000,45.500004
	C166.000000,47.000004 168.639786,48.100101 169.875824,50.077618
	C173.128036,55.280697 178.029434,54.907448 182.999680,55.014595
	C209.909378,55.594719 233.760651,64.584213 255.019714,80.974426
	C276.698639,97.688339 290.947113,119.324081 298.471924,145.508072
	C299.508820,149.116241 300.360199,152.804428 300.913971,156.512848
	C301.170135,158.228302 301.821686,159.422501 303.000000,160.500000
"/>
<path fill="none" opacity="1.000000" stroke="#000000" stroke-linecap="round" stroke-linejoin="round" stroke-width="3.000000"
	d="
M56.000000,198.000000
	C58.542038,206.107040 59.798016,214.544144 62.940868,222.523285
	C77.412048,259.263031 103.775055,283.684021 140.575928,296.786743
	C149.549133,299.981598 159.117584,302.080597 168.996933,302.218903
	C173.269150,302.278748 177.636795,303.021179 181.999985,303.025085
	C183.031067,303.026031 183.725174,303.642181 184.590500,304.396149
	C187.647141,307.059448 190.529572,310.076813 194.500000,311.500000
"/>
<path fill="none" opacity="1.000000" stroke="#000000" stroke-linecap="round" stroke-linejoin="round" stroke-width="3.000000"
	d="
M309.500000,197.000000
	C306.325439,223.344223 295.049744,245.990097 278.165314,266.044098
	C280.140198,271.733215 282.146515,277.512848 284.375732,283.934601
	C279.080078,282.250122 274.666168,281.078461 270.438690,279.133270
	C268.574402,278.275452 266.645325,277.406860 263.829681,279.799561
	C249.791351,291.729156 233.808685,300.503601 215.969299,305.387848
	C209.825409,307.069977 203.713654,309.908661 197.000000,308.500000
"/>
<path fill="none" opacity="1.000000" stroke="#000000" stroke-linecap="round" stroke-linejoin="round" stroke-width="3.000000"
	d="
M161.000000,308.500000
	C155.686005,310.188293 150.899673,307.584961 146.017853,306.424866
	C126.585861,301.807007 109.361008,292.558014 94.169342,279.798370
	C91.348030,277.428741 89.425575,278.275452 87.561317,279.133270
	C83.333839,281.078461 78.919914,282.250122 74.108780,283.780487
	C75.370178,277.521729 77.767281,272.037445 80.006737,266.181396
	C65.692650,249.628693 55.667175,230.571487 50.406624,209.022797
	C50.065594,207.625854 50.625813,206.081192 49.932213,205.045395
	C47.939548,202.069626 50.543240,197.404190 47.857651,195.728088
	C43.555756,193.043228 38.357224,191.764481 33.475502,190.070602
	C32.699669,189.801407 32.033253,189.600159 31.500000,189.000000
"/>
<path fill="none" opacity="1.000000" stroke="#000000" stroke-linecap="round" stroke-linejoin="round" stroke-width="3.000000"
	d="
M156.500000,183.499985
	C154.500000,183.666656 152.500168,183.976013 150.499969,183.978409
	C123.666679,184.010620 96.833336,184.000000 70.000000,184.000000
"/>
<path fill="none" opacity="1.000000" stroke="#000000" stroke-linecap="round" stroke-linejoin="round" stroke-width="3.000000"
	d="
M156.000000,189.500000
	C154.228180,188.656647 152.338715,189.015350 150.499985,189.013962
	C123.666672,188.993622 96.833336,189.000000 70.000000,189.000000
"/>
<path fill="none" opacity="1.000000" stroke="#000000" stroke-linecap="round" stroke-linejoin="round" stroke-width="3.000000"
	d="
M155.500000,180.000000
	C157.245956,183.594879 159.686890,187.156631 156.000443,191.000427
	C152.521347,194.628006 148.285461,195.910385 143.530640,194.403320
	C141.942078,193.899811 140.488800,194.038330 138.999924,194.035019
	C116.333366,193.984634 93.666664,194.000000 71.000000,194.000000
"/>
<path fill="none" opacity="1.000000" stroke="#000000" stroke-linecap="round" stroke-linejoin="round" stroke-width="3.000000"
	d="
M70.000000,178.500000
	C71.771812,179.343353 73.661278,178.984390 75.500015,178.985977
	C99.833328,179.007004 124.166664,179.000000 148.500000,179.000000
	C166.166672,179.000000 183.833435,179.037247 201.499969,178.988373
	C216.000916,178.948273 230.506210,179.312927 245.001938,178.536087
	C246.821106,178.438583 248.666595,178.834183 250.500015,178.999832
	C253.508408,179.271637 255.718536,178.185913 258.095795,176.109680
	C263.457367,171.427032 269.333344,167.333328 275.000000,163.000000
"/>
<path fill="none" opacity="1.000000" stroke="#000000" stroke-linecap="round" stroke-linejoin="round" stroke-width="3.000000"
	d="
M288.000000,184.000000
	C260.665649,184.000000 233.331299,184.000000 205.508240,184.000000
	C204.141098,186.893158 205.224625,189.846832 207.521576,192.481186
	C209.567535,194.827682 211.913879,195.842072 215.049820,194.089127
	C216.065720,193.521271 217.666672,194.000000 219.000000,194.000000
	C241.666672,194.000000 264.333344,194.000000 287.000000,194.000000
"/>
<path fill="none" opacity="1.000000" stroke="#000000" stroke-linecap="round" stroke-linejoin="round" stroke-width="3.000000"
	d="
M280.500000,219.500000
	C283.641876,216.890076 283.448059,212.945892 284.843414,209.269272
	C282.673370,209.169266 280.836792,209.013794 278.999969,209.011230
	C264.500000,208.991043 249.991455,209.294952 235.503601,208.875580
	C228.257782,208.665863 221.086395,208.144226 214.006851,210.025757
	C211.825912,210.605392 209.304352,211.162643 210.193314,214.748566
	C212.387665,214.930923 214.093521,213.910065 216.000458,213.921127
	C237.499741,214.045685 259.000000,213.997223 280.500000,214.012695
	C281.183228,214.013184 281.997162,213.677994 282.500000,214.500000
"/>
<path fill="none" opacity="1.000000" stroke="#000000" stroke-linecap="round" stroke-linejoin="round" stroke-width="3.000000"
	d="
M288.000000,189.000000
	C262.500000,189.000000 236.999969,188.984924 211.500061,189.034760
	C209.843216,189.037994 208.077469,188.441299 206.500000,189.500000
"/>
<path fill="none" opacity="1.000000" stroke="#000000" stroke-linecap="round" stroke-linejoin="round" stroke-width="3.000000"
	d="
M283.500000,74.500000
	C283.681915,79.299561 280.588654,83.084106 279.441437,87.484734
	C278.761810,90.091835 278.334045,92.141937 280.436920,94.554977
	C295.399933,111.725121 304.031738,131.996918 308.981934,154.004059
	C309.124695,154.638626 308.831573,155.387787 309.026703,155.991364
	C310.551147,160.706467 308.662323,162.496368 304.196045,161.941422
	C302.415588,165.771698 302.661133,169.622940 303.500000,173.500000
"/>
<path fill="none" opacity="1.000000" stroke="#000000" stroke-linecap="round" stroke-linejoin="round" stroke-width="3.000000"
	d="
M285.500000,73.000000
	C280.166656,74.833336 274.821472,76.633141 269.505646,78.515930
	C267.268219,79.308395 265.500122,79.364204 263.450348,77.556282
	C246.601410,62.695419 226.637833,54.030983 204.953278,49.210186
	C202.558167,48.677719 199.782761,46.809185 197.000000,48.500000
"/>
<path fill="none" opacity="1.000000" stroke="#000000" stroke-linecap="round" stroke-linejoin="round" stroke-width="3.000000"
	d="
M161.000000,48.500000
	C154.919998,48.061089 149.190063,49.925953 143.520218,51.569714
	C125.183113,56.885860 108.344398,65.150894 94.017754,78.019760
	C92.200928,79.651718 90.432251,79.185669 88.496735,78.509331
	C83.172852,76.648972 77.833336,74.833328 72.500000,73.000000
"/>
<path fill="none" opacity="1.000000" stroke="#000000" stroke-linecap="round" stroke-linejoin="round" stroke-width="3.000000"
	d="
M129.500000,214.000000
	C111.331802,214.000000 93.163612,214.000000 74.567375,214.000000
	C73.408890,207.686661 70.743523,201.248993 70.047684,194.043686
	C69.666908,190.100723 69.574265,185.990051 69.084686,181.989639
	C68.722015,179.026184 69.826790,176.500061 71.890945,173.912994
	C82.223625,160.962692 92.502327,148.004288 104.435005,136.432983
	C106.981819,133.963303 109.275223,132.934235 112.500427,134.502594
	C112.690002,137.832169 110.768776,141.269897 113.000000,144.500000
"/>
<path fill="none" opacity="1.000000" stroke="#000000" stroke-linecap="round" stroke-linejoin="round" stroke-width="3.000000"
	d="
M286.000000,199.000000
	C270.166656,199.000000 254.323563,198.668411 238.503952,199.134094
	C230.069595,199.382370 221.965500,198.642853 214.000000,196.000000
"/>
<path fill="none" opacity="1.000000" stroke="#000000" stroke-linecap="round" stroke-linejoin="round" stroke-width="3.000000"
	d="
M233.500000,200.500000
	C234.052612,203.258179 235.836914,204.046936 238.500168,204.034470
	C253.666504,203.963394 268.833374,203.989258 283.999969,204.018845
	C285.322601,204.021423 286.766785,204.430344 286.990326,202.498886
	C287.856232,195.017227 289.400574,187.592239 288.960358,180.002304
	C288.930328,179.484711 288.333313,179.000000 288.000000,178.500000
"/>
<path fill="none" opacity="1.000000" stroke="#000000" stroke-linecap="round" stroke-linejoin="round" stroke-width="3.000000"
	d="
M214.500000,86.500000
	C212.288239,82.504578 208.388138,80.332100 204.446381,79.184113
	C199.917892,77.865257 195.819931,79.846748 192.444275,83.447754
	C189.127640,86.985802 188.199905,91.229576 189.132050,95.470978
	C190.728989,102.737221 198.620819,107.141464 205.000000,105.000000
"/>
<path fill="none" opacity="1.000000" stroke="#000000" stroke-linecap="round" stroke-linejoin="round" stroke-width="3.000000"
	d="
M74.000000,209.500000
	C78.300377,208.476547 82.666626,209.147980 87.000511,209.016769
	C96.830910,208.719147 106.674332,209.461761 116.504036,208.543228
	C119.728195,208.241959 122.857681,209.279099 126.029846,209.827271
	C130.329697,210.570312 130.372986,213.823425 130.834976,216.528183
	C131.159622,218.428879 125.816414,220.775345 123.001640,220.241348
	C107.874992,217.371597 92.664207,219.899048 76.820641,218.839417
	C76.418549,218.184341 74.543983,217.221191 75.500000,215.000000
"/>
<path fill="none" opacity="1.000000" stroke="#000000" stroke-linecap="round" stroke-linejoin="round" stroke-width="3.000000"
	d="
M123.000000,220.500000
	C118.816689,224.359619 113.353622,223.403168 108.485428,223.836151
	C99.033394,224.676849 89.449860,223.237625 80.000000,225.000000
"/>
<path fill="none" opacity="1.000000" stroke="#000000" stroke-linecap="round" stroke-linejoin="round" stroke-width="3.000000"
	d="
M72.000000,199.000000
	C84.666664,199.000000 97.385216,198.290497 109.984512,199.211761
	C121.209473,200.032532 131.968246,197.149124 142.999283,196.958542
	C143.338272,196.952698 143.666656,196.333328 143.999985,195.999985
"/>
<path fill="none" opacity="1.000000" stroke="#000000" stroke-linecap="round" stroke-linejoin="round" stroke-width="3.000000"
	d="
M202.000000,123.000000
	C193.513474,116.868240 186.169128,109.251350 177.035217,103.939453
	C175.090652,102.808578 172.497452,100.926842 171.128464,101.721344
	C168.028107,103.520668 164.422195,101.689316 161.409454,104.399338
	C150.515961,114.198219 140.091141,124.410118 130.459641,135.464844
	C124.342194,142.486252 117.833328,149.166672 111.500000,156.000000
"/>
<path fill="none" opacity="1.000000" stroke="#000000" stroke-linecap="round" stroke-linejoin="round" stroke-width="3.000000"
	d="
M211.500000,215.500000
	C214.200958,218.473465 218.051285,218.656479 221.507614,218.884827
	C231.486084,219.544037 241.563721,220.499725 251.480194,219.741150
	C259.680054,219.113892 267.833038,219.323471 276.000854,219.022903
	C277.894348,218.953232 280.089722,218.442368 281.039978,221.111313
	C276.699036,227.828018 274.253693,235.600937 269.169373,242.131851
	C264.787292,247.760727 260.353058,253.272064 255.599564,258.589020
	C253.434555,261.010651 251.144501,261.037933 248.500000,261.000000
"/>
<path fill="none" opacity="1.000000" stroke="#000000" stroke-linecap="round" stroke-linejoin="round" stroke-width="3.000000"
	d="
M207.250000,81.000000
	C203.608963,82.206703 199.615692,82.397858 196.944061,85.958023
	C193.434677,90.634567 194.778458,98.083977 200.000000,101.000000
	C207.404099,105.134895 208.747955,104.866127 215.000000,98.000000
"/>
<path fill="none" opacity="1.000000" stroke="#000000" stroke-linecap="round" stroke-linejoin="round" stroke-width="3.000000"
	d="
M283.500000,176.000000
	C284.587830,173.603043 283.564819,171.879791 282.045471,169.963943
	C274.542938,160.503448 265.953217,152.072418 257.519287,143.481064
	C248.729401,134.527100 239.483704,126.037201 229.406662,118.626938
	C221.948593,113.142578 216.487000,111.787926 208.913071,118.907524
	C198.764160,128.447678 188.101746,137.453827 177.453979,146.445511
	C172.650208,150.502151 168.288757,155.162064 162.538956,158.076859
	C161.272903,158.718674 160.500000,160.333328 159.500000,161.500000
"/>
<path fill="none" opacity="1.000000" stroke="#000000" stroke-linecap="round" stroke-linejoin="round" stroke-width="3.000000"
	d="
M181.000000,9.000000
	C187.074387,24.182653 192.955170,39.436855 198.000000,55.000000
"/>
<path fill="none" opacity="1.000000" stroke="#000000" stroke-linecap="round" stroke-linejoin="round" stroke-width="3.000000"
	d="
M73.000000,204.000000
	C84.500000,204.000000 96.001541,204.105469 107.499084,203.937347
	C111.065712,203.885208 113.917801,204.497726 115.500000,208.000000
"/>
<path fill="none" opacity="1.000000" stroke="#000000" stroke-linecap="round" stroke-linejoin="round" stroke-width="3.000000"
	d="
M348.000000,181.000015
	C336.666687,185.333359 325.338776,189.680954 313.996857,193.991745
	C310.350220,195.377731 306.666656,196.666672 303.000000,198.000000
"/>
<path fill="none" opacity="1.000000" stroke="#000000" stroke-linecap="round" stroke-linejoin="round" stroke-width="3.000000"
	d="
M47.500000,162.000000
	C36.166668,166.333344 24.872372,170.774780 13.462051,174.894897
	C11.532433,175.591660 10.088401,176.382599 9.000000,178.000000
"/>
<path fill="none" opacity="1.000000" stroke="#000000" stroke-linecap="round" stroke-linejoin="round" stroke-width="3.000000"
	d="
M160.500000,302.000000
	C159.721603,304.648224 160.767776,307.460999 161.695847,309.406586
	C167.040253,320.610626 170.391296,332.542694 175.015030,343.993927
	C175.571381,345.371826 176.333328,346.666656 177.000000,348.000000
"/>
<path fill="none" opacity="1.000000" stroke="#000000" stroke-linecap="round" stroke-linejoin="round" stroke-width="3.000000"
	d="
M77.500000,220.000000
	C78.759293,226.889877 82.464554,232.727432 86.100960,238.435684
	C90.746910,245.728714 96.284935,252.425095 102.509804,258.489929
	C103.439346,259.395569 104.594337,260.974182 105.484840,260.870178
	C111.702225,260.143860 115.477600,265.056000 120.500000,267.000000
"/>
<path fill="none" opacity="1.000000" stroke="#000000" stroke-linecap="round" stroke-linejoin="round" stroke-width="3.000000"
	d="
M199.000000,122.000000
	C190.333328,128.666672 182.189682,136.233185 172.815063,141.681808
	C166.625275,145.279388 165.345688,150.844360 162.534149,156.018555
	C162.432312,156.205978 162.833344,156.666672 163.000000,157.000000
"/>
<path fill="none" opacity="1.000000" stroke="#000000" stroke-linecap="round" stroke-linejoin="round" stroke-width="3.000000"
	d="
M110.000000,247.000000
	C110.000000,251.666672 110.063843,256.334595 109.972878,260.999481
	C109.927895,263.306122 110.394012,264.974335 112.436935,266.580231
	C118.205460,271.114746 124.523125,274.634399 130.923569,278.139587
	C133.232727,279.404175 134.666672,278.243378 136.500000,278.000000
"/>
<path fill="none" opacity="1.000000" stroke="#000000" stroke-linecap="round" stroke-linejoin="round" stroke-width="3.000000"
	d="
M245.000000,246.000000
	C245.333359,250.755951 244.539886,255.423721 247.251083,260.143005
	C249.158096,263.462433 245.522751,266.932251 242.894287,268.855530
	C238.099548,272.363831 232.979340,276.353546 227.416504,277.638550
	C221.229004,279.067841 216.510254,283.094757 210.529846,284.617218
	C204.729034,286.093994 198.900528,287.219727 192.992004,287.933838
	C190.801285,288.198608 188.645386,288.759247 186.531219,289.163361
	C176.917343,291.001007 171.670425,283.760040 165.035141,279.445953
	C163.733063,278.599396 164.539124,276.821411 164.534821,275.499878
	C164.481461,259.166718 164.500000,242.833328 164.500000,226.500000
"/>
<path fill="none" opacity="1.000000" stroke="#000000" stroke-linecap="round" stroke-linejoin="round" stroke-width="3.000000"
	d="
M266.500000,153.500000
	C257.500000,160.000000 248.516144,166.522568 239.486465,172.981079
	C237.669083,174.280975 238.337219,176.401550 237.500000,178.000000
"/>
<path fill="none" opacity="1.000000" stroke="#000000" stroke-linecap="round" stroke-linejoin="round" stroke-width="3.000000"
	d="
M270.500000,157.999985
	C263.333313,163.499985 256.174042,169.009659 248.993362,174.491318
	C247.661987,175.507675 246.094482,176.261154 245.500000,178.000000
"/>
<path fill="none" opacity="1.000000" stroke="#000000" stroke-linecap="round" stroke-linejoin="round" stroke-width="3.000000"
	d="
M126.500000,257.000000
	C130.929001,256.231903 132.449036,251.308151 136.500000,248.878052
	C136.500000,258.166656 136.510849,266.333374 136.492508,274.499969
	C136.487793,276.595673 136.306030,278.692017 138.495697,280.007141
	C145.306824,284.097961 152.068436,288.319183 160.511810,284.526306
	C161.281418,284.180603 161.964233,284.645935 162.250000,285.500000
"/>
<path fill="none" opacity="1.000000" stroke="#000000" stroke-linecap="round" stroke-linejoin="round" stroke-width="4.000000"
	d="
M252.500000,225.500000
	C252.833344,225.166672 253.173401,224.536072 253.499023,224.543442
	C261.665436,224.728241 269.851898,223.923523 278.000000,225.000000
"/>
<path fill="none" opacity="1.000000" stroke="#000000" stroke-linecap="round" stroke-linejoin="round" stroke-width="3.000000"
	d="
M254.500000,227.000000
	C257.317200,228.978592 260.499481,227.688004 263.502594,227.972763
	C267.654205,228.366425 271.870728,227.398148 276.000000,228.500000
"/>
<path fill="none" opacity="1.000000" stroke="#000000" stroke-linecap="round" stroke-linejoin="round" stroke-width="3.000000"
	d="
M193.000000,117.999992
	C186.833328,122.833328 181.013092,128.229645 174.382843,132.309586
	C169.664261,135.213150 168.964859,138.899094 169.000000,143.500000
"/>
<path fill="none" opacity="1.000000" stroke="#000000" stroke-linecap="round" stroke-linejoin="round" stroke-width="3.000000"
	d="
M36.500000,179.500000
	C33.536282,178.725067 30.603889,178.524597 28.011522,180.515015
	C25.173317,182.694183 22.269619,182.137253 18.977745,181.650513
	C14.362837,180.968140 10.046549,179.274628 5.492599,178.546265
	C4.543533,178.394470 3.499999,178.833328 2.499999,179.000000
"/>
<path fill="none" opacity="1.000000" stroke="#000000" stroke-linecap="round" stroke-linejoin="round" stroke-width="3.000000"
	d="
M171.500000,213.000000
	C164.500000,213.000000 157.500000,213.000000 150.500000,213.000000
"/>
<path fill="none" opacity="1.000000" stroke="#000000" stroke-linecap="round" stroke-linejoin="round" stroke-width="3.000000"
	d="
M261.000000,149.000000
	C254.358154,153.867569 248.235107,159.450729 241.000000,163.500000
"/>
<path fill="none" opacity="1.000000" stroke="#000000" stroke-linecap="round" stroke-linejoin="round" stroke-width="3.000000"
	d="
M55.500000,160.500000
	C57.221031,166.057205 54.008022,171.440491 54.964169,177.006149
	C55.825104,182.017624 53.172905,185.347534 49.663189,188.672272
	C48.181313,190.076050 46.396019,191.848618 45.500000,194.000000
"/>
<path fill="none" opacity="1.000000" stroke="#000000" stroke-linecap="round" stroke-linejoin="round" stroke-width="3.000000"
	d="
M43.000000,179.500000
	C39.712440,178.346481 36.672913,178.672516 35.083252,182.039307
	C33.909531,184.525162 31.256542,185.818634 30.302950,188.496445
	C26.508894,188.776566 24.897497,186.024399 23.500000,183.000000
"/>
<path fill="none" opacity="1.000000" stroke="#000000" stroke-linecap="round" stroke-linejoin="round" stroke-width="3.000000"
	d="
M200.500000,203.000000
	C194.833328,203.000000 189.166672,203.000000 183.500000,203.000000
"/>
<path fill="none" opacity="1.000000" stroke="#000000" stroke-linecap="round" stroke-linejoin="round" stroke-width="3.000000"
	d="
M175.000000,23.500000
	C171.963684,24.397272 170.082062,25.985159 169.356461,29.470114
	C168.605042,33.079075 166.707291,36.449352 165.268600,40.029366
	C169.601837,43.252769 173.800919,46.376385 178.000000,49.500000
"/>
<path fill="none" opacity="1.000000" stroke="#000000" stroke-linecap="round" stroke-linejoin="round" stroke-width="3.000000"
	d="
M146.500000,229.000000
	C140.833328,229.000000 135.166672,229.000000 129.500000,229.000000
"/>
<path fill="none" opacity="1.000000" stroke="#000000" stroke-linecap="round" stroke-linejoin="round" stroke-width="4.000000"
	d="
M196.000000,219.500000
	C196.000000,225.833328 196.045792,232.167068 195.991043,238.499924
	C195.851273,254.666824 195.666672,270.833344 195.500000,287.000000
"/>
<path fill="none" opacity="1.000000" stroke="#000000" stroke-linecap="round" stroke-linejoin="round" stroke-width="3.000000"
	d="
M180.000000,7.750000
	C177.556351,7.594632 177.901535,9.800700 177.584503,11.021937
	C176.823334,13.954137 176.776443,17.081678 175.921082,19.976683
	C175.090500,22.787785 175.573700,25.375336 177.091003,27.432886
	C179.250153,30.360760 179.268661,33.288555 178.500000,36.500000
"/>
<path fill="none" opacity="1.000000" stroke="#000000" stroke-linecap="round" stroke-linejoin="round" stroke-width="3.000000"
	d="
M257.000000,144.000000
	C251.666672,147.833328 246.333328,151.666672 241.000000,155.500000
"/>
<path fill="none" opacity="1.000000" stroke="#000000" stroke-linecap="round" stroke-linejoin="round" stroke-width="3.000000"
	d="
M188.500000,113.000000
	C184.792282,117.274574 179.978409,120.400574 175.342560,123.243256
	C170.658508,126.115471 170.539886,129.249298 171.500000,133.500000
"/>
<path fill="none" opacity="1.000000" stroke="#000000" stroke-linecap="round" stroke-linejoin="round" stroke-width="3.000000"
	d="
M287.500000,177.500000
	C284.435333,176.502945 281.476135,176.667068 278.487579,177.971558
	C275.098022,179.451096 271.549927,179.381989 268.000000,178.500000
"/>
<path fill="none" opacity="1.000000" stroke="#000000" stroke-linecap="round" stroke-linejoin="round" stroke-width="3.000000"
	d="
M221.500000,242.500000
	C222.376892,254.323334 221.845169,266.166504 222.000000,278.000000
"/>
<path fill="none" opacity="1.000000" stroke="#000000" stroke-linecap="round" stroke-linejoin="round" stroke-width="3.000000"
	d="
M177.000000,257.000000
	C173.860397,254.846161 170.348602,253.355621 167.890472,250.082260
	C165.930893,247.472778 163.292191,247.765305 160.959137,250.464691
	C158.405197,253.419724 155.357193,255.842560 151.500000,257.000000
"/>
<path fill="none" opacity="1.000000" stroke="#000000" stroke-linecap="round" stroke-linejoin="round" stroke-width="3.000000"
	d="
M228.500000,229.000000
	C223.833328,229.000000 219.166672,229.000000 214.500000,229.000000
"/>
<path fill="none" opacity="1.000000" stroke="#000000" stroke-linecap="round" stroke-linejoin="round" stroke-width="3.000000"
	d="
M177.000000,274.000000
	C173.732208,272.204102 170.396500,270.459259 168.022095,267.482391
	C165.943665,264.876556 163.728195,264.642853 161.532547,267.029938
	C159.005859,269.776917 155.901443,271.749390 153.000000,274.000000
"/>
<path fill="none" opacity="1.000000" stroke="#000000" stroke-linecap="round" stroke-linejoin="round" stroke-width="3.000000"
	d="
M192.500000,316.500000
	C187.505371,315.127014 184.999649,309.865143 180.000000,308.500000
"/>
<path fill="none" opacity="1.000000" stroke="#000000" stroke-linecap="round" stroke-linejoin="round" stroke-width="3.000000"
	d="
M148.500000,270.500000
	C144.941696,269.106354 142.063385,266.743469 139.518677,263.982788
	C137.427063,261.713654 135.576767,261.717499 133.480164,263.981628
	C130.979401,266.682190 128.238297,269.107452 124.500000,270.000000
"/>
<path fill="none" opacity="1.000000" stroke="#000000" stroke-linecap="round" stroke-linejoin="round" stroke-width="3.000000"
	d="
M208.000000,250.000000
	C204.796997,247.927673 201.661835,245.771866 198.996658,243.003220
	C196.481461,240.390411 194.362106,240.973297 191.939926,243.441025
	C189.548279,245.877640 186.666672,247.833344 184.000015,250.000015
"/>
<path fill="none" opacity="1.000000" stroke="#000000" stroke-linecap="round" stroke-linejoin="round" stroke-width="3.000000"
	d="
M175.500000,243.000000
	C171.888107,242.260300 169.896881,239.305740 167.546753,236.953293
	C165.328918,234.733261 163.583389,234.890442 161.477875,236.977676
	C159.101456,239.333511 157.079376,242.216934 153.500000,243.000000
"/>
<path fill="none" opacity="1.000000" stroke="#000000" stroke-linecap="round" stroke-linejoin="round" stroke-width="3.000000"
	d="
M195.500000,227.500000
	C191.386978,229.954453 189.178055,234.736145 184.500000,236.500000
"/>
<path fill="none" opacity="1.000000" stroke="#000000" stroke-linecap="round" stroke-linejoin="round" stroke-width="3.000000"
	d="
M196.500000,272.500000
	C200.669785,274.728363 203.378525,279.294373 208.500000,280.000000
"/>
<path fill="none" opacity="1.000000" stroke="#000000" stroke-linecap="round" stroke-linejoin="round" stroke-width="3.000000"
	d="
M279.000000,168.000000
	C275.527893,171.748764 270.868225,174.010178 267.285980,177.797577
	C264.982971,180.232483 260.549927,179.381989 257.000000,178.500000
"/>
<path fill="none" opacity="1.000000" stroke="#000000" stroke-linecap="round" stroke-linejoin="round" stroke-width="3.000000"
	d="
M49.500000,180.000000
	C47.172718,184.504532 43.270191,187.827637 40.500000,192.000000
"/>
<path fill="none" opacity="1.000000" stroke="#000000" stroke-linecap="round" stroke-linejoin="round" stroke-width="3.000000"
	d="
M196.500000,258.500000
	C200.403275,261.238708 203.641754,264.876831 208.000000,267.000000
"/>
<path fill="none" opacity="1.000000" stroke="#000000" stroke-linecap="round" stroke-linejoin="round" stroke-width="3.000000"
	d="
M317.000000,166.000000
	C314.350647,170.130325 310.386566,173.329376 308.500000,178.000000
"/>
<path fill="none" opacity="1.000000" stroke="#000000" stroke-linecap="round" stroke-linejoin="round" stroke-width="3.000000"
	d="
M252.000000,139.000000
	C248.000000,142.166672 244.000000,145.333328 240.000000,148.500000
"/>
<path fill="none" opacity="1.000000" stroke="#000000" stroke-linecap="round" stroke-linejoin="round" stroke-width="3.000000"
	d="
M195.500000,273.000000
	C190.764008,273.850403 188.501633,278.764587 184.000000,280.000000
"/>
<path fill="none" opacity="1.000000" stroke="#000000" stroke-linecap="round" stroke-linejoin="round" stroke-width="3.000000"
	d="
M211.500000,258.000000
	C215.079376,257.216949 217.153870,254.379486 219.460251,251.962067
	C221.323044,250.009598 222.707169,249.975769 224.531662,251.971039
	C226.858063,254.515182 229.257751,257.041748 232.500000,258.500000
"/>
<path fill="none" opacity="1.000000" stroke="#000000" stroke-linecap="round" stroke-linejoin="round" stroke-width="3.000000"
	d="
M196.000000,227.500000
	C200.085785,229.448105 201.705673,234.297241 206.000000,236.000000
"/>
<path fill="none" opacity="1.000000" stroke="#000000" stroke-linecap="round" stroke-linejoin="round" stroke-width="3.000000"
	d="
M183.000000,109.000000
	C179.727234,112.343094 175.870529,114.930489 172.000000,117.500000
"/>
<path fill="none" opacity="1.000000" stroke="#000000" stroke-linecap="round" stroke-linejoin="round" stroke-width="3.000000"
	d="
M233.000000,271.000000
	C229.480743,268.359100 225.961502,265.718201 222.035095,262.771790
	C217.817673,264.446228 215.232208,268.906708 211.000000,271.000000
"/>
<path fill="none" opacity="1.000000" stroke="#000000" stroke-linecap="round" stroke-linejoin="round" stroke-width="3.000000"
	d="
M179.000000,304.000000
	C179.000000,312.833344 178.979187,321.666748 179.022308,330.499878
	C179.028824,331.834015 178.844345,333.610413 179.583145,334.424561
	C183.110367,338.311340 181.523499,342.675995 180.282547,346.428070
	C179.261230,349.516052 179.095215,352.432526 179.000000,355.500000
"/>
<path fill="none" opacity="1.000000" stroke="#000000" stroke-linecap="round" stroke-linejoin="round" stroke-width="3.000000"
	d="
M180.000000,314.500000
	C183.860291,316.292908 186.304123,320.210480 190.500000,321.500000
"/>
<path fill="none" opacity="1.000000" stroke="#000000" stroke-linecap="round" stroke-linejoin="round" stroke-width="3.000000"
	d="
M185.000000,337.000000
	C189.124084,329.773193 190.576569,321.501160 193.993439,313.997009
	C194.210632,313.520020 194.213333,312.906128 194.519241,312.515045
	C196.729568,309.689178 197.890533,306.026184 194.843750,303.983002
	C192.100204,302.143158 188.076111,300.386841 184.500000,303.500000
"/>
<path fill="none" opacity="1.000000" stroke="#000000" stroke-linecap="round" stroke-linejoin="round" stroke-width="3.000000"
	d="
M194.500000,259.500000
	C190.375732,261.126038 187.742966,264.840149 184.000000,267.000000
"/>
<path fill="none" opacity="1.000000" stroke="#000000" stroke-linecap="round" stroke-linejoin="round" stroke-width="3.000000"
	d="
M175.000000,288.500000
	C171.270615,289.605652 167.749924,289.250549 164.500000,287.000000
"/>
<path fill="none" opacity="1.000000" stroke="#000000" stroke-linecap="round" stroke-linejoin="round" stroke-width="3.000000"
	d="
M244.500000,256.500000
	C240.611801,257.813019 238.847916,262.394226 234.500000,263.000000
"/>
<path fill="none" opacity="1.000000" stroke="#000000" stroke-linecap="round" stroke-linejoin="round" stroke-width="3.000000"
	d="
M54.500000,185.000000
	C54.666668,185.500000 54.922916,185.988907 54.986416,186.501678
	C55.795601,193.036499 55.192501,194.030823 49.000000,196.500000
"/>
<path fill="none" opacity="1.000000" stroke="#000000" stroke-linecap="round" stroke-linejoin="round" stroke-width="3.000000"
	d="
M120.500000,253.000000
	C116.937180,252.470169 115.071373,249.464340 112.516602,247.478638
	C110.927254,246.243301 109.305374,245.990585 108.042755,247.534958
	C105.796707,250.282196 102.442848,251.557861 100.000000,254.000000
"/>
<path fill="none" opacity="1.000000" stroke="#000000" stroke-linecap="round" stroke-linejoin="round" stroke-width="4.000000"
	d="
M179.500000,191.500000
	C176.171158,191.756577 172.788269,190.932022 169.500000,192.000000
"/>
<path fill="none" opacity="1.000000" stroke="#000000" stroke-linecap="round" stroke-linejoin="round" stroke-width="3.000000"
	d="
M137.500000,250.500000
	C141.039246,251.920013 142.155197,256.695374 146.500000,257.000000
"/>
<path fill="none" opacity="1.000000" stroke="#000000" stroke-linecap="round" stroke-linejoin="round" stroke-width="3.000000"
	d="
M110.000000,236.000000
	C110.166672,239.333328 110.333336,242.666672 110.500000,246.000000
"/>
<path fill="none" opacity="1.000000" stroke="#000000" stroke-linecap="round" stroke-linejoin="round" stroke-width="3.000000"
	d="
M54.000000,179.000000
	C51.500000,178.834259 49.066498,179.847290 46.471436,179.099075
	C45.208263,178.734879 43.875427,178.626862 42.778759,180.892929
	C41.128017,184.303925 38.000000,187.000000 35.500000,190.000000
"/>
<path fill="none" opacity="1.000000" stroke="#000000" stroke-linecap="round" stroke-linejoin="round" stroke-width="3.000000"
	d="
M165.000000,41.500000
	C162.843979,43.338654 163.988464,46.556618 161.723312,48.732471
	C160.679840,49.734802 161.546814,53.938107 164.520386,54.354404
	C167.257858,54.737652 170.166672,55.884453 173.000000,54.500000
"/>
<path fill="none" opacity="1.000000" stroke="#000000" stroke-linecap="round" stroke-linejoin="round" stroke-width="3.000000"
	d="
M125.000000,140.000000
	C121.266136,137.694611 118.629578,132.755676 113.000000,135.000000
"/>
<path fill="none" opacity="1.000000" stroke="#000000" stroke-linecap="round" stroke-linejoin="round" stroke-width="3.000000"
	d="
M102.000000,242.000000
	C105.209381,240.325089 106.695984,235.377991 110.469818,235.781937
	C113.507843,236.107147 115.626556,239.685074 118.031952,241.966309
	C118.295189,242.215958 119.000000,242.000000 119.500000,242.000000
"/>
<path fill="none" opacity="1.000000" stroke="#000000" stroke-linecap="round" stroke-linejoin="round" stroke-width="3.000000"
	d="
M304.000000,179.000000
	C313.000000,179.000000 322.000061,178.985580 330.999939,179.014648
	C332.444244,179.019318 333.730865,178.690094 335.008362,178.015869
	C340.024109,175.368835 344.833618,176.245834 349.500000,179.000000
"/>
<path fill="none" opacity="1.000000" stroke="#000000" stroke-linecap="round" stroke-linejoin="round" stroke-width="3.000000"
	d="
M168.000000,35.500000
	C171.466660,37.642868 173.968643,41.163849 178.000000,42.500000
"/>
<path fill="none" opacity="1.000000" stroke="#000000" stroke-linecap="round" stroke-linejoin="round" stroke-width="3.000000"
	d="
M322.000000,168.000015
	C319.500000,171.333344 317.000000,174.666672 314.500000,178.000015
"/>
<path fill="none" opacity="1.000000" stroke="#000000" stroke-linecap="round" stroke-linejoin="round" stroke-width="3.000000"
	d="
M223.500000,116.000000
	C223.470901,121.401825 226.403595,125.836906 229.647034,129.364822
	C237.364227,137.758942 239.567520,147.568802 240.234863,158.485641
	C240.529404,163.303741 238.226791,167.781906 239.500000,172.500000
"/>
<path fill="none" opacity="1.000000" stroke="#000000" stroke-linecap="round" stroke-linejoin="round" stroke-width="3.000000"
	d="
M253.500000,251.500000
	C251.062576,250.997284 249.683151,248.887070 248.108810,247.385895
	C245.694656,245.083954 244.127747,244.870865 241.954666,247.461990
	C240.527924,249.163208 238.666687,250.500015 237.000015,252.000015
"/>
<path fill="none" opacity="1.000000" stroke="#000000" stroke-linecap="round" stroke-linejoin="round" stroke-width="3.000000"
	d="
M142.500000,205.000000
	C139.500000,205.000000 136.500000,205.000000 133.500000,205.000000
"/>
<path fill="none" opacity="1.000000" stroke="#000000" stroke-linecap="round" stroke-linejoin="round" stroke-width="3.000000"
	d="
M247.000000,135.000015
	C244.000000,137.166672 241.000000,139.333344 238.000000,141.500015
"/>
<path fill="none" opacity="1.000000" stroke="#000000" stroke-linecap="round" stroke-linejoin="round" stroke-width="3.000000"
	d="
M122.000000,139.000000
	C119.341034,140.844528 117.004951,143.053925 114.064774,144.621490
	C110.609932,146.463455 112.027245,149.995010 112.500000,153.000000
"/>
<path fill="none" opacity="1.000000" stroke="#000000" stroke-linecap="round" stroke-linejoin="round" stroke-width="3.000000"
	d="
M180.000000,321.500000
	C183.407059,322.687225 185.797363,325.314850 188.500000,327.500000
"/>
<path fill="none" opacity="1.000000" stroke="#000000" stroke-linecap="round" stroke-linejoin="round" stroke-width="3.000000"
	d="
M327.500000,169.500000
	C325.582397,172.391495 322.532501,174.483734 321.500000,178.000000
"/>
<path fill="none" opacity="1.000000" stroke="#000000" stroke-linecap="round" stroke-linejoin="round" stroke-width="3.000000"
	d="
M170.000000,30.500002
	C170.833328,31.166668 171.568069,32.074924 172.515640,32.461685
	C179.926529,35.486526 179.303162,41.982967 178.800491,47.983288
	C178.624176,50.087990 179.702728,52.000000 179.000000,54.000000
"/>
<path fill="none" opacity="1.000000" stroke="#000000" stroke-linecap="round" stroke-linejoin="round" stroke-width="3.000000"
	d="
M132.500000,97.500000
	C130.713913,99.713913 128.981308,101.981308 126.500000,103.500000
"/>
<path fill="none" opacity="1.000000" stroke="#000000" stroke-linecap="round" stroke-linejoin="round" stroke-width="3.000000"
	d="
M122.500000,103.500000
	C127.404846,102.880814 130.071594,105.991798 132.500000,109.500000
"/>
<path fill="none" opacity="1.000000" stroke="#000000" stroke-linecap="round" stroke-linejoin="round" stroke-width="3.000000"
	d="
M132.500000,93.500000
	C131.880814,98.404846 134.991791,101.071587 138.500000,103.500000
"/>
<path fill="none" opacity="1.000000" stroke="#000000" stroke-linecap="round" stroke-linejoin="round" stroke-width="3.000000"
	d="
M242.500000,130.500000
	C240.000000,132.166672 237.500000,133.833328 235.000000,135.500000
"/>
<path fill="none" opacity="1.000000" stroke="#000000" stroke-linecap="round" stroke-linejoin="round" stroke-width="3.000000"
	d="
M177.500000,105.000000
	C175.475189,107.225990 173.182587,109.111168 170.500000,110.500000
"/>
<path fill="none" opacity="1.000000" stroke="#000000" stroke-linecap="round" stroke-linejoin="round" stroke-width="3.000000"
	d="
M142.500000,103.500000
	C135.834198,103.750420 132.750427,106.834206 132.500000,113.500000
"/>
<path fill="none" opacity="1.000000" stroke="#000000" stroke-linecap="round" stroke-linejoin="round" stroke-width="3.000000"
	d="
M167.000000,104.000000
	C166.415161,107.260979 169.791992,108.921356 170.102051,111.989685
	C170.527283,116.197601 171.666656,120.333336 172.499985,124.500000
"/>
<path fill="none" opacity="1.000000" stroke="#000000" stroke-linecap="round" stroke-linejoin="round" stroke-width="3.000000"
	d="
M254.000000,113.500000
	C254.000000,118.166664 254.000000,122.833336 254.000000,127.500000
"/>
<path fill="none" opacity="1.000000" stroke="#000000" stroke-linecap="round" stroke-linejoin="round" stroke-width="3.000000"
	d="
M245.000000,238.500000
	C245.257507,240.659683 244.612183,242.888809 245.500000,245.000000
"/>
<path fill="none" opacity="1.000000" stroke="#000000" stroke-linecap="round" stroke-linejoin="round" stroke-width="3.000000"
	d="
M179.999985,327.500031
	C182.166656,329.166687 184.333313,330.833344 186.499985,332.500031
"/>
<path fill="none" opacity="1.000000" stroke="#000000" stroke-linecap="round" stroke-linejoin="round" stroke-width="3.000000"
	d="
M332.500000,171.500000
	C331.163574,173.664764 328.587646,175.066757 328.500000,178.000000
"/>
<path fill="none" opacity="1.000000" stroke="#000000" stroke-linecap="round" stroke-linejoin="round" stroke-width="3.000000"
	d="
M110.000000,228.500000
	C110.166672,230.666672 110.333336,232.833328 110.500000,235.000000
"/>
<path fill="none" opacity="1.000000" stroke="#000000" stroke-linecap="round" stroke-linejoin="round" stroke-width="4.000000"
	d="
M260.500000,121.000000
	C256.166656,120.170372 251.833328,120.170372 247.500000,121.000000
"/>
<path fill="none" opacity="1.000000" stroke="#000000" stroke-linecap="round" stroke-linejoin="round" stroke-width="4.000000"
	d="
M97.500000,116.500000
	C98.108109,120.833336 98.108109,125.166664 97.500000,129.500000
"/>
<path fill="none" opacity="1.000000" stroke="#000000" stroke-linecap="round" stroke-linejoin="round" stroke-width="3.000000"
	d="
M103.500000,123.000000
	C99.500000,123.000000 95.500000,123.000000 91.500000,123.000000
"/>
</svg>